<svg xmlns="http://www.w3.org/2000/svg" width="200" height="40" fill="none" class="UserLogo variant-- " preserveAspectRatio="xMidYMid meet" viewBox="0 0 200 40"><path fill="var(--userLogoColor, #FF5A5F)" d="M103.041 12.04a2.078 2.078 0 01-2.082 2.082 2.078 2.078 0 01-2.083-2.082c0-1.153.897-2.082 2.083-2.082 1.185.032 2.082.96 2.082 2.082zm-8.585 4.196v.513s-.993-1.281-3.107-1.281c-3.492 0-6.214 2.658-6.214 6.342 0 3.652 2.69 6.342 6.214 6.342 2.146 0 3.107-1.313 3.107-1.313v.544c0 .257.192.449.449.449h2.594V15.788h-2.594a.458.458 0 00-.449.448zm0 7.72c-.48.705-1.441 1.313-2.595 1.313-2.05 0-3.62-1.281-3.62-3.46 0-2.177 1.57-3.459 3.62-3.459 1.122 0 2.147.641 2.595 1.314v4.292zm4.965-8.168h3.075v12.044h-3.075V15.788zm45.934-.32c-2.114 0-3.107 1.28-3.107 1.28V9.99h-3.075v17.842h2.594a.458.458 0 00.449-.449v-.544s.993 1.313 3.107 1.313c3.491 0 6.214-2.69 6.214-6.342 0-3.652-2.723-6.342-6.182-6.342zm-.512 9.77c-1.186 0-2.115-.61-2.595-1.314v-4.292c.48-.641 1.505-1.314 2.595-1.314 2.05 0 3.619 1.282 3.619 3.46s-1.569 3.46-3.619 3.46zm-7.272-4.55v7.176h-3.075V21.04c0-1.986-.64-2.787-2.37-2.787-.929 0-1.89.48-2.499 1.185v8.393h-3.075V15.788h2.435c.256 0 .448.224.448.448v.513c.897-.93 2.082-1.281 3.267-1.281 1.346 0 2.467.384 3.364 1.153 1.089.897 1.505 2.05 1.505 4.068zm-18.482-5.22c-2.114 0-3.107 1.28-3.107 1.28V9.99h-3.075v17.842h2.594a.459.459 0 00.449-.449v-.544s.993 1.313 3.107 1.313c3.491 0 6.214-2.69 6.214-6.342.032-3.652-2.691-6.342-6.182-6.342zm-.513 9.77c-1.185 0-2.114-.61-2.594-1.314v-4.292c.48-.641 1.505-1.314 2.594-1.314 2.05 0 3.62 1.282 3.62 3.46s-1.57 3.46-3.62 3.46zm-8.328-9.77c.929 0 1.409.16 1.409.16v2.85s-2.562-.864-4.164.961v8.425h-3.075V15.788h2.595c.256 0 .448.224.448.448v.513c.577-.673 1.826-1.281 2.787-1.281zM78.312 26.742c-.16-.385-.32-.801-.48-1.153-.257-.577-.513-1.121-.737-1.634l-.032-.032a334.292 334.292 0 00-7.08-14.479l-.095-.192c-.257-.48-.513-.993-.77-1.505-.32-.577-.64-1.185-1.152-1.762C66.94 4.705 65.467 4 63.898 4c-1.602 0-3.044.705-4.1 1.922-.481.577-.833 1.185-1.154 1.762a64.965 64.965 0 01-.768 1.505l-.097.192c-2.466 4.805-4.868 9.674-7.079 14.479l-.032.064c-.224.512-.48 1.057-.736 1.634-.16.352-.32.736-.48 1.153-.417 1.185-.545 2.306-.385 3.46a6.808 6.808 0 004.164 5.316 6.579 6.579 0 002.595.513 8.46 8.46 0 004.036-1.153c1.313-.737 2.562-1.794 3.972-3.332 1.409 1.538 2.69 2.595 3.972 3.332A8.46 8.46 0 0071.842 36c.896 0 1.793-.16 2.594-.512 2.242-.897 3.812-2.948 4.164-5.318.257-1.121.128-2.242-.288-3.427zm-14.447 1.665c-1.73-2.178-2.85-4.228-3.235-5.958-.16-.736-.192-1.377-.096-1.953.064-.513.256-.961.513-1.346.608-.865 1.633-1.41 2.819-1.41 1.185 0 2.242.513 2.818 1.41.257.385.449.833.513 1.346.096.576.064 1.249-.096 1.953-.385 1.698-1.506 3.748-3.235 5.958zm12.781 1.506a4.76 4.76 0 01-2.915 3.748 4.852 4.852 0 01-2.434.32c-.8-.096-1.602-.352-2.434-.833-1.154-.64-2.307-1.633-3.652-3.107 2.114-2.595 3.395-4.965 3.876-7.079a8.03 8.03 0 00.16-2.723 5.197 5.197 0 00-.865-2.178c-.993-1.441-2.659-2.274-4.517-2.274-1.857 0-3.523.865-4.516 2.274a5.197 5.197 0 00-.865 2.178 6.65 6.65 0 00.16 2.723c.48 2.114 1.794 4.517 3.876 7.111-1.313 1.474-2.498 2.467-3.652 3.107-.832.48-1.633.737-2.434.833a5.123 5.123 0 01-2.434-.32 4.76 4.76 0 01-2.915-3.748 5.303 5.303 0 01.288-2.499c.096-.32.256-.64.417-1.025.224-.512.48-1.057.736-1.601l.032-.064c2.21-4.773 4.58-9.642 7.047-14.383l.096-.192c.257-.48.513-.993.77-1.473a7 7 0 01.896-1.41c.673-.768 1.57-1.185 2.563-1.185.993 0 1.89.417 2.562 1.185.353.417.64.897.897 1.41.256.48.513.993.769 1.473l.096.192a424.669 424.669 0 017.015 14.415v.032c.256.512.48 1.089.737 1.601.16.385.32.705.416 1.025.256.833.352 1.634.224 2.467z"></path><title>Airbnb logo</title></svg>