<svg xmlns="http://www.w3.org/2000/svg" width="200" height="40" fill="none" viewBox="0 0 200 40" class="UserLogo variant-- " preserveAspectRatio="xMidYMid meet"><path fill="var(--userLogoColor, #000)" d="M123.579 35.966h-1.519v-.773h3.876v.773h-1.519v3.916h-.838v-3.916zM118.274 35.966h-1.506v-.773h3.864v.773h-1.506v3.916h-.852v-3.916zM108.975 35.193h-.838v4.69h.838v-4.69zM104.208 37.302c.209 0 .379-.065.497-.196a.695.695 0 00.184-.485.728.728 0 00-.184-.498.64.64 0 00-.484-.183h-.891v1.362h.878zm-1.69-2.109h1.69c.275 0 .524.04.72.131a1.296 1.296 0 01.733.8c.053.17.079.327.079.47 0 .289-.065.564-.183.787a1.43 1.43 0 01-.563.55l1.034 1.964h-.956l-.904-1.846h-.838v1.846h-.812v-4.702zM98.798 37.302c.21 0 .38-.065.498-.196a.695.695 0 00.183-.485.728.728 0 00-.183-.498.641.641 0 00-.485-.183h-.89v1.362h.877zm-1.702-2.109h1.69c.274 0 .523.04.72.131.196.092.353.197.471.34.118.145.21.289.262.46a1.627 1.627 0 01-.105 1.257 1.425 1.425 0 01-.563.55l1.035 1.964h-.956l-.904-1.846h-.851v1.846h-.813v-4.702h.014zM93.769 37.957l-.59-1.82-.602 1.82h1.192zm-1.009-2.764h.865l1.69 4.69h-.944l-.393-1.193h-1.663l-.393 1.192h-.878l1.716-4.689zM84.928 35.193h.786l1.336 2.214 1.323-2.214h.785l.21 4.69h-.812l-.157-3.249-1.166 1.912h-.406l-1.179-1.873-.144 3.21h-.786l.21-4.69zM113.337 39.175a1.31 1.31 0 001.061-.498c.131-.157.222-.328.288-.537.065-.197.105-.406.105-.629 0-.223-.04-.432-.105-.642a1.464 1.464 0 00-.288-.523 1.2 1.2 0 00-.459-.354 1.31 1.31 0 00-.602-.131c-.223 0-.419.04-.603.13a1.48 1.48 0 00-.733.878 1.984 1.984 0 000 1.27c.065.197.157.38.288.538.131.157.275.275.445.367.184.078.38.13.603.13zm0 .825c-.328 0-.629-.066-.917-.197a2.431 2.431 0 01-.734-.524 2.445 2.445 0 01-.497-.786 2.655 2.655 0 010-1.938c.118-.301.288-.563.497-.786.21-.222.446-.393.734-.524.288-.13.589-.196.917-.196.327 0 .628.065.917.196.275.131.523.302.733.524.21.223.38.485.498.786a2.654 2.654 0 010 1.938 2.43 2.43 0 01-.498.786 2.22 2.22 0 01-.733.524 2.18 2.18 0 01-.917.197z"></path><path fill="var(--userLogoColor, #A11D2B)" d="M107.534 30.504h7.531L102.466.484 96.14 3.55l4.4 10.452-2.043 4.86L90.612 0l-6.391 2.92 5.134 12.05-.026.053c-3.17 7.61-7.047 9.692-7.427 9.836a7.658 7.658 0 01-3.811.524L75 32.011c1.022.589 2.174.93 3.392.93 1.546 0 2.96-.538 4.14-1.428l-.014.026s2.92-1.48 6.051-9.588c0-.013 1.153-2.593 1.768-4.243l.066-.183 5.5 12.992h7.519l-3.877-9.142 2.056-4.859 5.933 13.988z"></path><title>Marriott logo</title></svg>