<svg xmlns="http://www.w3.org/2000/svg" width="200" height="40" fill="none" viewBox="0 0 200 40" preserveAspectRatio="xMidYMid meet"><path fill="var(--userLogoColor, #000)" fill-rule="evenodd" d="M71.56 11.321a7.549 7.549 0 01.649 6.201v-.002a7.638 7.638 0 01.942 8.95 7.553 7.553 0 01-5.048 3.662 7.637 7.637 0 01-7.287 5.29 7.546 7.546 0 01-5.694-2.538 7.635 7.635 0 01-8.224-3.663 7.55 7.55 0 01-.649-6.2 7.637 7.637 0 01-.939-8.954 7.553 7.553 0 015.049-3.662 7.636 7.636 0 017.283-5.286 7.552 7.552 0 015.694 2.54 7.635 7.635 0 018.224 3.662zM57.183 32.128a5.66 5.66 0 003.635 1.314 5.686 5.686 0 005.674-5.679v-7.045a.09.09 0 00-.05-.07l-2.55-1.472v8.507a.981.981 0 01-.496.858l-6.034 3.485a3.654 3.654 0 01-.18.102zm-9.243-7.702a5.655 5.655 0 00.677 3.805h.001a5.686 5.686 0 007.758 2.078l6.1-3.521a.094.094 0 00.035-.079v-2.945l-7.366 4.254a.982.982 0 01-.992 0l-6.034-3.485a7.31 7.31 0 01-.126-.075l-.053-.032zm2.045-11.857a5.66 5.66 0 00-2.956 2.49h-.001a5.686 5.686 0 002.079 7.756l6.1 3.525a.09.09 0 00.086-.008l2.55-1.473-7.366-4.253a.982.982 0 01-.495-.858v-6.97a6.017 6.017 0 01.003-.209zm10.63 3.112l7.367 4.254h.001a.98.98 0 01.493.858v7.18a5.68 5.68 0 00.877-10.248L63.252 14.2a.09.09 0 00-.086.007l-2.55 1.472zm9.904.433a8.218 8.218 0 00-.178-.106l-6.034-3.485a.982.982 0 00-.992 0l-7.366 4.254v-2.945a.094.094 0 01.036-.079l6.1-3.519a5.678 5.678 0 018.434 5.88zM52.01 19.89l2.551 1.473v-.002l.004-8.503a.98.98 0 01.496-.858l6.035-3.485c.053-.032.132-.077.179-.101a5.68 5.68 0 00-9.314 4.362v7.044a.09.09 0 00.05.07zm7.218-3.409l-3.281 1.895v3.788l3.281 1.894 3.282-1.894v-3.789l-3.282-1.894zm19.645 3.206c0 4.954 3.182 8.41 7.591 8.41 4.41 0 7.591-3.456 7.591-8.41s-3.182-8.41-7.591-8.41c-4.41 0-7.591 3.455-7.591 8.41zm12.273 0c0 3.545-1.932 5.84-4.682 5.84-2.75 0-4.682-2.295-4.682-5.84s1.932-5.841 4.682-5.841c2.75 0 4.682 2.295 4.682 5.84zm11.102 8.409c3.341 0 5.25-2.819 5.25-6.205s-1.909-6.205-5.25-6.205c-1.546 0-2.682.614-3.432 1.5v-1.273H96.09v16.024h2.727v-5.341c.75.886 1.886 1.5 3.432 1.5zm-3.5-6.546c0-2.25 1.272-3.477 2.954-3.477 1.978 0 3.046 1.545 3.046 3.818s-1.068 3.818-3.046 3.818c-1.682 0-2.954-1.25-2.954-3.454v-.705zm21.244 3.205c-.841 2.09-2.727 3.34-5.114 3.34-3.409 0-5.795-2.522-5.795-6.204 0-3.5 2.227-6.205 5.682-6.205 3.454 0 5.295 2.614 5.295 5.887v.909h-8.363c.204 2.045 1.431 3.295 3.181 3.295 1.341 0 2.41-.681 2.773-1.909l2.341.887zm-2.682-4.319c-.022-1.318-.841-2.454-2.568-2.454-1.409 0-2.5.84-2.909 2.454h5.477zm4.797 7.41h2.728v-7c0-1.705 1.25-2.614 2.477-2.614 1.5 0 2.091 1.068 2.091 2.545v7.069h2.727v-7.864c0-2.569-1.5-4.296-4-4.296-1.545 0-2.614.705-3.295 1.5v-1.273h-2.728v11.933zm11.829 0l6.182-16.319h3.296l6.182 16.32h-2.932l-1.409-3.728h-7.046l-1.386 3.727h-2.887zm10.364-6.273l-2.591-6.818-2.546 6.818h5.137zm9.978-9.998h-2.909v16.318h2.909V11.576z" clip-rule="evenodd"></path><title>OpenAI logo</title></svg>