<svg class="ProductIcon ProductIcon--PaymentLinks ProductBadge__icon" width="40" height="40" viewBox="0 0 40 40" fill="none" xmlns="http://www.w3.org/2000/svg"><path d="M11.5603 16.2116c-.3287-.8362.2877-1.7409 1.1862-1.7409h15.7828c0 .3165-.059.633-.1768.9327l-3.5077 8.9217c-.3834.9751-1.3244 1.6163-2.3722 1.6163h-7.1818c0-.1582-.0295-.3165-.0884-.4663l-3.6421-9.2635Z" fill="url(#product-icon-payment-links--a)"></path><path d="M.0896108 4.74087C-.239137 3.90471.377287 3 1.27575 3H14.6995c.0185 0 .0369.00039.0552.00117.0258-.00078.0517-.00117.0777-.00117h7.6402c1.0478 0 1.9889.6412 2.3723 1.61636l3.5076 8.92164c.1179.2998.1768.6162.1768.9327H12.7465c-.8985 0-1.5149.9047-1.1862 1.7409l3.6421 9.2635c.0589.1498.0884.3081.0884.4663H1.27575c-.898464 0-1.514886-.9047-1.1861386-1.7408L3.73167 14.9371c.11784-.2998.11784-.633 0-.9327L.0896108 4.74087Z" fill="url(#product-icon-payment-links--b)"></path><path fill-rule="evenodd" clip-rule="evenodd" d="M15.2908 25.9414c0 .1583-.0295.3165-.0884.4664l-3.6421 9.2635c-.3287.8361.2877 1.7408 1.1862 1.7408h21.1968c1.0478 0 1.9889-.6412 2.3723-1.6163l3.5076-8.9217c.2357-.5995.2357-1.2659 0-1.8654l-3.5076-8.9216c-.3834-.9752-1.3245-1.6164-2.3723-1.6164h-5.414c0 .3165-.059.633-.1768.9327l-3.5077 8.9217c-.3834.9751-1.3244 1.6163-2.3722 1.6163h-7.1818Z" fill="#96F"></path><defs><linearGradient id="product-icon-payment-links--a" x1="14.0622" y1="24.6669" x2="29.3565" y2="12.5589" gradientUnits="userSpaceOnUse"><stop stop-color="#0048E5"></stop><stop offset=".63979" stop-color="#625AF5"></stop><stop offset="1" stop-color="#8A62FC"></stop></linearGradient><linearGradient id="product-icon-payment-links--b" x1="14.2646" y1="4.50656" x2="14.0622" y2="24.6669" gradientUnits="userSpaceOnUse"><stop stop-color="#11EFE3"></stop><stop offset=".33" stop-color="#15E8E2"></stop><stop offset=".74" stop-color="#1FD3E0"></stop><stop offset="1" stop-color="#21CFE0"></stop></linearGradient></defs></svg>