<svg xmlns="http://www.w3.org/2000/svg" width="200" height="40" class="UserLogo variant-- " preserveAspectRatio="xMidYMid meet" viewBox="0 0 200 40"><title>Shopify logo</title><path fill="var(--userLogoColor, #95BF47)" d="M66.246 8.155c.117.02.273.098.293.274.02.156 3.615 24.484 3.615 24.484L61.341 35.1 41 31.584s2.423-18.778 2.52-19.423c.118-.88.157-.899 1.075-1.192.014-.014.67-.216 1.709-.535l1.437-.442c.196-1.407.88-3.224 1.798-4.67 1.31-2.071 2.892-3.224 4.494-3.263.821-.02 1.505.254 2.052.84.04.058.078.098.117.137.079-.02.176-.02.254-.02 1.25 0 2.267.704 2.97 2.052.215.41.372.82.47 1.153l.996-.313c.156-.04.527-.098.723.098.195.195 2.169 2.11 2.169 2.11s2.345.02 2.462.04zm-8.158-1.378c.28-.088.544-.172.791-.244-.254-.82-.84-2.188-2.071-2.423.371.977.469 2.11.489 2.912.276-.083.54-.166.79-.245zm-2.67.831l.823-.254c0-.88-.078-2.189-.527-3.107-.47.196-.86.528-1.153.84-.762.821-1.387 2.072-1.72 3.322a329.99 329.99 0 012.577-.801zm-.408-4.22c-.273-.177-.586-.255-.957-.255-2.462.078-4.612 3.928-5.198 6.507l.256-.08c.804-.25 1.655-.515 2.538-.78.313-1.64 1.095-3.321 2.11-4.416.392-.43.822-.762 1.251-.977zm.43 13.13l1.016-3.83s-.879-.449-2.638-.293c-4.474.293-6.506 3.42-6.311 6.507.132 2.051 1.347 2.914 2.412 3.67.832.591 1.573 1.117 1.633 2.095.039.547-.293 1.309-1.231 1.367-1.427.079-3.224-1.27-3.224-1.27l-.684 2.912s1.778 1.895 5.022 1.7c2.696-.176 4.572-2.326 4.377-5.491-.154-2.422-1.857-3.515-3.206-4.381-.883-.566-1.614-1.036-1.66-1.716-.02-.332 0-1.582 1.993-1.7a5.624 5.624 0 012.501.43z"></path><path fill="var(--userLogoColor, #5E8E3E)" d="M66.25 8.16c-.12-.02-2.47-.04-2.47-.04L61.61 6a.39.39 0 00-.27-.12V35.1l8.81-2.19s-3.6-24.3-3.61-24.48a.35.35 0 00-.3-.27z" class="UserLogo__path--blendModeMultiply"></path><path fill="var(--userLogoColorAlt, #FFF)" d="M56.46 12.69l-1.02 3.83s-1.13-.53-2.5-.43c-2 .12-2.01 1.37-2 1.7.12 1.72 4.62 2.09 4.87 6.1.2 3.16-1.68 5.31-4.38 5.49a6.59 6.59 0 01-5.02-1.7l.69-2.92s1.8 1.35 3.22 1.27a1.26 1.26 0 001.23-1.36c-.14-2.23-3.8-2.11-4.04-5.77-.2-3.09 1.83-6.21 6.3-6.5 1.77-.16 2.65.29 2.65.29z"></path><path fill="var(--userLogoColor, #000)" d="M82.1 20.86c-1.02-.55-1.55-1.02-1.55-1.66 0-.83.72-1.35 1.88-1.35 1.32 0 2.5.54 2.5.54l.93-2.85s-.86-.66-3.38-.66c-3.51 0-5.96 2.01-5.96 4.84 0 1.6 1.14 2.84 2.66 3.72 1.23.7 1.66 1.19 1.66 1.93 0 .76-.6 1.37-1.76 1.37-1.7 0-3.3-.88-3.3-.88l-1 2.85s1.49 1 3.97 1c3.62 0 6.22-1.78 6.22-4.98.02-1.74-1.3-2.97-2.88-3.87zm14.41-6.02c-1.77 0-3.18.84-4.26 2.13l-.05-.02 1.54-8.1H89.7l-3.9 20.58h4.02l1.35-7.03c.53-2.66 1.9-4.3 3.18-4.3.9 0 1.25.6 1.25 1.49 0 .54-.05 1.23-.17 1.77l-1.53 8.05h4.03l1.58-8.32c.18-.88.3-1.93.3-2.62 0-2.24-1.22-3.63-3.3-3.63zm12.41 0c-4.84 0-8.05 4.37-8.05 9.26 0 3.13 1.94 5.63 5.55 5.63 4.75 0 7.97-4.26 7.97-9.26-.02-2.88-1.72-5.63-5.47-5.63zm-2 11.8c-1.36 0-1.95-1.17-1.95-2.62 0-2.3 1.2-6.08 3.39-6.08 1.42 0 1.9 1.24 1.9 2.43 0 2.48-1.2 6.27-3.33 6.27zm17.75-11.8c-2.71 0-4.26 2.38-4.26 2.38h-.06l.24-2.17h-3.56a77.76 77.76 0 01-.82 5.34l-2.8 14.73h4.03l1.12-5.96h.07s.82.53 2.37.53c4.73 0 7.81-4.85 7.81-9.75.02-2.68-1.19-5.1-4.14-5.1zm-3.85 11.86c-1.05 0-1.66-.59-1.66-.59l.67-3.77c.46-2.5 1.77-4.18 3.18-4.18 1.23 0 1.6 1.13 1.6 2.23 0 2.6-1.54 6.3-3.79 6.3zm13.76-17.63a2.3 2.3 0 00-2.3 2.35c0 1.19.75 2.01 1.89 2.01h.06c1.25 0 2.34-.84 2.36-2.34 0-1.18-.78-2.02-2.01-2.02zm-5.63 20.36h4.03l2.73-14.26h-4.06l-2.7 14.26zm17-14.3h-2.8l.14-.66c.24-1.37 1.06-2.6 2.39-2.6.72 0 1.29.2 1.29.2l.78-3.15s-.7-.35-2.19-.35c-1.43 0-2.85.4-3.95 1.34-1.37 1.18-2.01 2.86-2.34 4.56l-.12.66h-1.88l-.58 3.03h1.87l-2.13 11.27h4.03l2.13-11.27h2.77l.6-3.03zm9.7.04s-2.53 6.35-3.66 9.8h-.06c-.08-1.1-1-9.8-1-9.8h-4.22l2.43 13.11c.05.3.02.47-.08.67a6.95 6.95 0 01-2.2 2.42c-.75.55-1.6.9-2.28 1.13l1.12 3.42c.82-.17 2.5-.84 3.94-2.19 1.84-1.72 3.54-4.37 5.28-7.99l4.92-10.57h-4.2z"></path></svg>