<svg xmlns="http://www.w3.org/2000/svg" width="200" height="40" fill="none" viewBox="0 0 200 40" class="UserLogo variant-- " preserveAspectRatio="xMidYMid meet"><path fill="var(--userLogoColor, #000)" fill-rule="evenodd" d="M77 40h45.697V0H77v40zm21.872-27.646c-.024 1.756-.024 3.418-1.509 4.963-1.806 1.897-5.17 2.528-7.817 2.528a16.34 16.34 0 01-3.686-.397c-.84-.187-1.929-.515-3.017-1.194-2.747-1.756-2.77-3.934-2.77-5.9V2.756h4.353v9.716c0 1.474.321 2.714 1.979 3.464 1.41.633 2.671.586 3.958.539 1.657-.142 2.721-.563 3.414-1.311.42-.469.792-1.007.741-2.67V2.756h4.355v9.598zm.164 20.1c0 .959-.233 1.966-.826 2.785-1.417 1.944-3.763 1.944-5.541 1.966H80.165V20.68h11.807c1.882.046 4.176.093 5.414 1.708.644.843.722 1.756.722 2.341 0 .445-.052 1.382-.722 2.2-.748.89-1.727 1.171-2.294 1.311 1.134.282 3.944.913 3.944 4.215zm15.359-20.076l5.294 6.905h-5.145l-4.676-6.648h-4.972v6.648h-4.379V2.756h12.022c1.98 0 3.785.164 5.245 1.756.891.983 1.138 2.224 1.138 3.184 0 1.264-.445 2.763-1.682 3.652-.94.679-2.153.912-2.845 1.03zm5.393 24.853h-4.329l-8.658-9.317a56.224 56.224 0 01-2.251-2.598c.124 1.264.124 1.545.148 2.809v9.106h-4.155V20.704h4.354l8.558 9.2c1.039 1.147 1.237 1.382 2.326 2.67-.148-1.57-.148-1.991-.173-3.419v-8.451h4.18V37.23zm-5.294-29.488c0-.328-.05-.89-.346-1.288-.322-.398-.743-.796-2.474-.796h-6.778v4.05h6.976c.939 0 2.622-.117 2.622-1.966zM94.473 32.055c0-1.99-1.727-1.99-2.397-1.99h-7.399v4.238h6.832c1.03 0 2.964.023 2.964-2.248zm-.722-6.718c0-1.756-1.47-1.78-2.192-1.78h-6.882v3.63h6.522c.541 0 1.056-.024 1.47-.165 1.082-.398 1.082-1.498 1.082-1.685z" clip-rule="evenodd"></path><title>URBN logo</title></svg>